<svg width="25" height="24" viewBox="0 0 25 24" fill="none" xmlns="http://www.w3.org/2000/svg">
<g clip-path="url(#clip0_4366_85643)">
<path d="M17.1289 1H7.12891C6.02891 1 5.12891 1.9 5.12891 3V21C5.12891 22.1 6.02891 23 7.12891 23H17.1289C18.2289 23 19.1289 22.1 19.1289 21V3C19.1289 1.9 18.2289 1 17.1289 1ZM16.1289 19H8.12891C7.57891 19 7.12891 18.55 7.12891 18V6C7.12891 5.45 7.57891 5 8.12891 5H16.1289C16.6789 5 17.1289 5.45 17.1289 6V18C17.1289 18.55 16.6789 19 16.1289 19Z" fill="#9E9E9E"/>
<path d="M15.1289 6H9.12891C8.57891 6 8.12891 6.45 8.12891 7C8.12891 7.55 8.57891 8 9.12891 8H15.1289C15.6789 8 16.1289 7.55 16.1289 7C16.1289 6.45 15.6789 6 15.1289 6Z" fill="#9E9E9E"/>
</g>
<defs>
<clipPath id="clip0_4366_85643">
<rect width="24" height="24" fill="white" transform="translate(0.128906)"/>
</clipPath>
</defs>
</svg>
