<svg width="25" height="24" viewBox="0 0 25 24" fill="none" xmlns="http://www.w3.org/2000/svg">
<g clip-path="url(#clip0_4366_85638)">
<path d="M9.58984 21H5.58984C4.48984 21 3.58984 20.1 3.58984 19V5C3.58984 3.9 4.48984 3 5.58984 3H9.58984C10.6898 3 11.5898 3.9 11.5898 5V19C11.5898 20.1 10.6898 21 9.58984 21ZM15.5898 21H19.5898C20.6898 21 21.5898 20.1 21.5898 19V14C21.5898 12.9 20.6898 12 19.5898 12H15.5898C14.4898 12 13.5898 12.9 13.5898 14V19C13.5898 20.1 14.4898 21 15.5898 21ZM21.5898 8V5C21.5898 3.9 20.6898 3 19.5898 3H15.5898C14.4898 3 13.5898 3.9 13.5898 5V8C13.5898 9.1 14.4898 10 15.5898 10H19.5898C20.6898 10 21.5898 9.1 21.5898 8Z" fill="#9E9E9E"/>
</g>
<defs>
<clipPath id="clip0_4366_85638">
<rect width="24" height="24" fill="white" transform="translate(0.589844)"/>
</clipPath>
</defs>
</svg>
