<svg width="25" height="24" viewBox="0 0 25 24" fill="none" xmlns="http://www.w3.org/2000/svg">
<g clip-path="url(#clip0_4366_85640)">
<path d="M19.3594 19H3.35938V7C3.35938 6.45 2.90938 6 2.35938 6C1.80937 6 1.35938 6.45 1.35938 7V19C1.35938 20.1 2.25937 21 3.35938 21H19.3594C19.9094 21 20.3594 20.55 20.3594 20C20.3594 19.45 19.9094 19 19.3594 19Z" fill="#9E9E9E"/>
<path d="M21.3594 4H14.3594L12.9494 2.59C12.5694 2.21 12.0594 2 11.5294 2H7.35938C6.25937 2 5.36938 2.9 5.36938 4L5.35938 15C5.35938 16.1 6.25937 17 7.35938 17H21.3594C22.4594 17 23.3594 16.1 23.3594 15V6C23.3594 4.9 22.4594 4 21.3594 4ZM18.3594 13H10.3594C9.94938 13 9.70938 12.53 9.95938 12.2L11.3394 10.37C11.5394 10.1 11.9394 10.1 12.1394 10.37L13.3594 12L15.5794 9.03C15.7794 8.76 16.1794 8.76 16.3794 9.03L18.7594 12.2C19.0094 12.53 18.7694 13 18.3594 13Z" fill="#9E9E9E"/>
</g>
<defs>
<clipPath id="clip0_4366_85640">
<rect width="24" height="24" fill="white" transform="translate(0.359375)"/>
</clipPath>
</defs>
</svg>
