<svg width="25" height="24" viewBox="0 0 25 24" fill="none" xmlns="http://www.w3.org/2000/svg">
<g clip-path="url(#clip0_4366_85644)">
<path d="M3.71875 17.0001H21.7188C22.2688 17.0001 22.7188 17.4501 22.7188 18.0001C22.7188 18.5501 22.2688 19.0001 21.7188 19.0001H3.71875C3.16875 19.0001 2.71875 18.5501 2.71875 18.0001C2.71875 17.4501 3.16875 17.0001 3.71875 17.0001ZM3.21875 12.5701C3.57875 12.7801 4.03875 12.6501 4.24875 12.2901L4.71875 11.4701L5.19875 12.3001C5.40875 12.6601 5.86875 12.7801 6.22875 12.5801C6.58875 12.3701 6.70875 11.9201 6.50875 11.5601L6.01875 10.7201H6.96875C7.37875 10.7201 7.71875 10.3801 7.71875 9.97006C7.71875 9.56006 7.37875 9.22006 6.96875 9.22006H6.01875L6.48875 8.40006C6.69875 8.04006 6.57875 7.58006 6.21875 7.37006C5.85875 7.17006 5.39875 7.29006 5.18875 7.65006L4.71875 8.47006L4.24875 7.65006C4.03875 7.29006 3.57875 7.17006 3.21875 7.37006C2.85875 7.58006 2.73875 8.04006 2.94875 8.40006L3.41875 9.22006H2.46875C2.05875 9.22006 1.71875 9.56006 1.71875 9.97006C1.71875 10.3801 2.05875 10.7201 2.46875 10.7201H3.41875L2.93875 11.5501C2.73875 11.9101 2.85875 12.3701 3.21875 12.5701ZM11.2188 12.5701C11.5788 12.7801 12.0387 12.6501 12.2487 12.2901L12.7188 11.4701L13.1987 12.3001C13.4087 12.6601 13.8688 12.7801 14.2288 12.5801C14.5888 12.3701 14.7087 11.9201 14.5087 11.5601L14.0288 10.7301H14.9788C15.3888 10.7301 15.7288 10.3901 15.7288 9.98006C15.7288 9.57006 15.3888 9.23006 14.9788 9.23006H14.0188L14.4888 8.41006C14.6988 8.05006 14.5687 7.59006 14.2188 7.38006C13.8587 7.17006 13.3987 7.30006 13.1987 7.65006L12.7188 8.47006L12.2487 7.65006C12.0387 7.29006 11.5788 7.17006 11.2288 7.38006C10.8688 7.59006 10.7487 8.05006 10.9587 8.41006L11.4288 9.23006H10.4688C10.0588 9.22006 9.71875 9.56006 9.71875 9.97006C9.71875 10.3801 10.0588 10.7201 10.4688 10.7201H11.4187L10.9388 11.5501C10.7388 11.9101 10.8587 12.3701 11.2188 12.5701ZM23.7188 9.97006C23.7188 9.56006 23.3787 9.22006 22.9688 9.22006H22.0187L22.4888 8.40006C22.6988 8.04006 22.5687 7.58006 22.2188 7.37006C21.8587 7.16006 21.3987 7.29006 21.1987 7.64006L20.7188 8.47006L20.2488 7.65006C20.0388 7.29006 19.5788 7.17006 19.2288 7.38006C18.8688 7.59006 18.7487 8.05006 18.9587 8.41006L19.4287 9.23006H18.4788C18.0588 9.22006 17.7188 9.56006 17.7188 9.97006C17.7188 10.3801 18.0588 10.7201 18.4688 10.7201H19.4188L18.9387 11.5501C18.7287 11.9101 18.8587 12.3701 19.2188 12.5701C19.5788 12.7801 20.0388 12.6501 20.2488 12.2901L20.7188 11.4701L21.1987 12.3001C21.4087 12.6601 21.8688 12.7801 22.2288 12.5801C22.5888 12.3701 22.7088 11.9201 22.5088 11.5601L22.0287 10.7301H22.9788C23.3788 10.7201 23.7188 10.3801 23.7188 9.97006Z" fill="#9E9E9E"/>
</g>
<defs>
<clipPath id="clip0_4366_85644">
<rect width="24" height="24" fill="white" transform="translate(0.71875)"/>
</clipPath>
</defs>
</svg>
