<svg width="25" height="24" viewBox="0 0 25 24" fill="none" xmlns="http://www.w3.org/2000/svg">
<g clip-path="url(#clip0_4366_85645)">
<path d="M12.1797 12.75C13.8097 12.75 15.2497 13.14 16.4197 13.65C17.4997 14.13 18.1797 15.21 18.1797 16.38V17C18.1797 17.55 17.7297 18 17.1797 18H7.17969C6.62969 18 6.17969 17.55 6.17969 17V16.39C6.17969 15.21 6.85969 14.13 7.93969 13.66C9.10969 13.14 10.5497 12.75 12.1797 12.75ZM4.17969 13C5.27969 13 6.17969 12.1 6.17969 11C6.17969 9.9 5.27969 9 4.17969 9C3.07969 9 2.17969 9.9 2.17969 11C2.17969 12.1 3.07969 13 4.17969 13ZM5.30969 14.1C4.93969 14.04 4.56969 14 4.17969 14C3.18969 14 2.24969 14.21 1.39969 14.58C0.659688 14.9 0.179688 15.62 0.179688 16.43V17C0.179688 17.55 0.629687 18 1.17969 18H4.67969V16.39C4.67969 15.56 4.90969 14.78 5.30969 14.1ZM20.1797 13C21.2797 13 22.1797 12.1 22.1797 11C22.1797 9.9 21.2797 9 20.1797 9C19.0797 9 18.1797 9.9 18.1797 11C18.1797 12.1 19.0797 13 20.1797 13ZM24.1797 16.43C24.1797 15.62 23.6997 14.9 22.9597 14.58C22.1097 14.21 21.1697 14 20.1797 14C19.7897 14 19.4197 14.04 19.0497 14.1C19.4497 14.78 19.6797 15.56 19.6797 16.39V18H23.1797C23.7297 18 24.1797 17.55 24.1797 17V16.43ZM12.1797 6C13.8397 6 15.1797 7.34 15.1797 9C15.1797 10.66 13.8397 12 12.1797 12C10.5197 12 9.17969 10.66 9.17969 9C9.17969 7.34 10.5197 6 12.1797 6Z" fill="#9E9E9E"/>
</g>
<defs>
<clipPath id="clip0_4366_85645">
<rect width="24" height="24" fill="white" transform="translate(0.179688)"/>
</clipPath>
</defs>
</svg>
