<svg width="25" height="24" viewBox="0 0 25 24" fill="none" xmlns="http://www.w3.org/2000/svg">
<g clip-path="url(#clip0_4366_85639)">
<path d="M12.7695 12C14.9795 12 16.7695 10.21 16.7695 8C16.7695 5.79 14.9795 4 12.7695 4C10.5595 4 8.76953 5.79 8.76953 8C8.76953 10.21 10.5595 12 12.7695 12ZM12.7695 14C10.0995 14 4.76953 15.34 4.76953 18V19C4.76953 19.55 5.21953 20 5.76953 20H19.7695C20.3195 20 20.7695 19.55 20.7695 19V18C20.7695 15.34 15.4395 14 12.7695 14Z" fill="#9E9E9E"/>
</g>
<defs>
<clipPath id="clip0_4366_85639">
<rect width="24" height="24" fill="white" transform="translate(0.769531)"/>
</clipPath>
</defs>
</svg>
