<svg width="25" height="24" viewBox="0 0 25 24" fill="none" xmlns="http://www.w3.org/2000/svg">
<g clip-path="url(#clip0_4366_85642)">
<path d="M20.5391 7H15.5391V4C15.5391 2.9 14.6391 2 13.5391 2H11.5391C10.4391 2 9.53906 2.9 9.53906 4V7H4.53906C3.43906 7 2.53906 7.9 2.53906 9V20C2.53906 21.1 3.43906 22 4.53906 22H20.5391C21.6391 22 22.5391 21.1 22.5391 20V9C22.5391 7.9 21.6391 7 20.5391 7ZM9.53906 12C10.3691 12 11.0391 12.67 11.0391 13.5C11.0391 14.33 10.3691 15 9.53906 15C8.70906 15 8.03906 14.33 8.03906 13.5C8.03906 12.67 8.70906 12 9.53906 12ZM12.5391 18H6.53906V17.57C6.53906 16.97 6.89906 16.42 7.45906 16.18C8.09906 15.9 8.79906 15.75 9.53906 15.75C10.2791 15.75 10.9791 15.9 11.6191 16.18C12.1691 16.42 12.5391 16.96 12.5391 17.57V18ZM13.5391 9H11.5391V4H13.5391V9ZM17.7891 16.5H15.2891C14.8791 16.5 14.5391 16.16 14.5391 15.75C14.5391 15.34 14.8791 15 15.2891 15H17.7891C18.1991 15 18.5391 15.34 18.5391 15.75C18.5391 16.16 18.1991 16.5 17.7891 16.5ZM17.7891 13.5H15.2891C14.8791 13.5 14.5391 13.16 14.5391 12.75C14.5391 12.34 14.8791 12 15.2891 12H17.7891C18.1991 12 18.5391 12.34 18.5391 12.75C18.5391 13.16 18.1991 13.5 17.7891 13.5Z" fill="#9E9E9E"/>
</g>
<defs>
<clipPath id="clip0_4366_85642">
<rect width="24" height="24" fill="white" transform="translate(0.539062)"/>
</clipPath>
</defs>
</svg>
